<?xml version="1.0" encoding="UTF-8"?>
<svg id="_レイヤー_2" data-name="レイヤー 2" xmlns="http://www.w3.org/2000/svg" viewBox="0 0 461.46 270.24">
  <defs>
    <style>
      .flower,
      .flowerCenter,
      .branch {
        animation-name: flowerAnimation;
        animation-duration: 1s;
        animation-timing-function: ease-in;
        animation-delay: 1s;
        animation-iteration-count: infinite;
        animation-direction: alternate;
        animation-fill-mode: forwards;
        animation-play-state: running;

      }

      @keyframes flowerAnimation {
        0% {}

        100% {
          transform: matrix(0.98, -0.02, 0, 1, 1, 0);
        }
      }

      .dot1 {
        animation-name: dot1Animation;
        animation-duration: 1s;
        animation-timing-function: ease-in;
        animation-delay: 1s;
        animation-iteration-count: infinite;
        animation-direction: alternate;
        animation-fill-mode: forwards;
        animation-play-state: running;
      }

      .dot2 {
        animation-name: dot2Animation;
        animation-duration: 1s;
        animation-timing-function: ease-in;
        animation-delay: 1s;
        animation-iteration-count: infinite;
        animation-direction: alternate;
        animation-fill-mode: forwards;
        animation-play-state: running;
      }

      .dot3 {
        animation-name: dot3Animation;
        animation-duration: 1s;
        animation-timing-function: ease-in;
        animation-delay: 1s;
        animation-iteration-count: infinite;
        animation-direction: alternate;
        animation-fill-mode: forwards;
        animation-play-state: running;
      }

      .dot4 {
        animation-name: dot4Animation;
        animation-duration: 1s;
        animation-timing-function: ease-in;
        animation-delay: 1s;
        animation-iteration-count: infinite;
        animation-direction: alternate;
        animation-fill-mode: forwards;
        animation-play-state: running;
      }

      .dot5 {
        animation-name: dot5Animation;
        animation-duration: 1s;
        animation-timing-function: ease-in;
        animation-delay: 1s;
        animation-iteration-count: infinite;
        animation-direction: alternate;
        animation-fill-mode: forwards;
        animation-play-state: running;
      }

      .dot6 {
        animation-name: dot6Animation;
        animation-duration: 1s;
        animation-timing-function: ease-in;
        animation-delay: 1s;
        animation-iteration-count: infinite;
        animation-direction: alternate;
        animation-fill-mode: forwards;
        animation-play-state: running;
      }

      @keyframes dot1Animation {
        0% {}

        100% {
          transform: matrix(0.99, 0.01, 0, 1, 0, 0);
        }
      }

      @keyframes dot2Animation {
        0% {}

        100% {
          transform: matrix(0.99, -0.01, 0, 1, 0, 0);
        }
      }

      @keyframes dot3Animation {
        0% {}

        100% {
          transform: matrix(1, 0.01, 0, 1, 0, 0);
        }
      }

      @keyframes dot4Animation {
        0% {}

        100% {
          transform: matrix(1, -0.01, 0, 1, 0, 0);
        }
      }

      @keyframes dot5Animation {
        0% {}

        100% {
          transform: matrix(1.01, 0.01, 0, 1, 0, 0);
        }
      }

      @keyframes dot6Animation {
        0% {}

        100% {
          transform: matrix(1.01, -0.01, 0, 1, 0, 0);
        }
      }

      .pigTail {
        animation-name: pigTailAnimation;
        animation-duration: 1s;
        animation-timing-function: ease-in;
        animation-delay: 1s;
        animation-iteration-count: infinite;
        animation-direction: alternate;
        animation-fill-mode: forwards;
        animation-play-state: running;
      }

      @keyframes pigTailAnimation {
        0% {}

        100% {
          transform: matrix(1, 0, 0, 1, 1, 1);
        }
      }

      .cls-1,
      .cls-3,
      .cls-5,
      .cls-9,
      .cls-10,
      .cls-12,
      .cls-13 {
        stroke: #fff;
      }

      .cls-2,
      .cls-4,
      .cls-8,
      .cls-11 {
        stroke: #000;
      }

      .cls-15,
      .cls-16,
      .cls-8,
      .cls-9 {
        fill: #fff;
      }

      .cls-17 {
        fill: #7a80e9;
      }

      .cls-18 {
        fill: #d6d6d6;
      }

      /* .cls-19 {
        fill: #0566e9;
      } */

      .cls-20,
      .flowerCenter,
      .dot1,
      .dot2,
      .dot3,
      .dot4,
      .dot5,
      .dot6,
      .cls-7 {
        fill: #3737ef;
      }

      .cls-21,
      .cls-6 {
        fill: #292938;
      }

      .cls-16,
      .cls-22 {
        opacity: .3;
      }

      .cls-16,
      .cls-23 {
        isolation: isolate;
      }

      .cls-4,
      .cls-5,
      .cls-11,
      .cls-12,
      .cls-14 {
        fill: none;
      }

      .cls-4,
      .cls-5,
      .cls-13 {
        stroke-linecap: round;
      }

      .cls-6,
      .cls-7,
      .cls-14 {
        stroke: #170004;
        stroke-width: .25px;
      }

      .cls-10,
      .cls-13 {
        stroke-width: .5px;
      }

      .cls-24 {
        opacity: .5;
      }

      .cls-23 {
        opacity: .2;
      }
    </style>
  </defs>
  <g id="_レイヤー_1-2" data-name="レイヤー 1">
    <path class="cls-21"
      d="M268.89,270.24c-6.52,0-13.02-.68-19.39-2.04l-.46-.11c-38.44-8.37-67.37-40.16-72.08-79.22-.14-1.14-.26-2.29-.35-3.44-.22-2.6-.34-5.23-.34-7.8s.11-5.34,.35-7.91c0-.45,.07-.9,.11-1.37,5.15-50.89,50.58-87.96,101.47-82.81,50.89,5.15,87.96,50.58,82.81,101.47-4.25,42.03-36.42,75.86-78.18,82.23-.86,.14-1.73,.25-2.62,.36-3.76,.45-7.54,.67-11.33,.66Zm-18.7-3.05c9.83,2.03,19.92,2.44,29.89,1.23,.87-.1,1.72-.21,2.58-.35,36.38-5.49,66.59-33.22,75.16-69,11.88-49.11-18.3-98.55-67.41-110.42-49.11-11.88-98.55,18.3-110.42,67.41-.98,4.05-1.68,8.16-2.1,12.31-.05,.55-.09,1-.12,1.45-.23,2.58-.34,5.21-.34,7.82s.11,5.14,.33,7.7c.09,1.15,.21,2.29,.34,3.4,4.69,38.74,33.48,70.22,71.65,78.34l.45,.12Z" />
    <g class="cls-24">
      <path class="cls-17"
        d="M179.98,153.76s15.86-48.16,66.19-61.63c-.32,1.33-.8,2.61-1.44,3.81-1.27,3.51,.21,7.42,3.49,9.19,0,0,5.34,4.26-.21,8.46-1.35,1.08-2.1,2.74-2.03,4.46,0,0-.83,4.58,2.22,7.81,.92,.93,2.07,1.61,3.33,1.98,2.08,.64,6.54,2.48,4.75,6.06,0,0-4.58,8.06-26.46-1.15,0,0-8.06-3.46-14.96,6.87,0,0-14.45,21.3-35.99,14.1" />
    </g>
    <path class="cls-21"
      d="M237.16,176.93c-.35,0-.7-.04-1.03-.14l-.12-.07c-1.01-.58-1.69-1.6-1.82-2.76-.21-2.37,2.15-4.58,2.29-4.69,1.89-1.53,2.43-4.18,1.27-6.32-.05-.05-2.76-3.2-1.73-5.7,.63-1.53,2.43-2.38,5.34-2.59,3.07,.09,6.08-.87,8.53-2.74,1.27-1.01,2.64-1.88,4.1-2.59,3.23-1.53,7.81-3.36,11.27-3.53,1.21-.08,2.39,.35,3.28,1.17,.9,.83,1.42,1.98,1.45,3.2,.03,1.48-.14,2.96-.5,4.4-.01,2.4,.41,4.79,1.24,7.04h0c.57,1.35,.81,2.82,.68,4.29-.37,4.39-3.81,6.51-10.55,6.51-2.47-.09-4.9-.67-7.15-1.69-2.88-2.2-6.91-2.06-9.64,.32-2.59,5.12-5.42,5.88-6.9,5.88Zm-.59-1.21c.46,.11,3.53,.66,6.5-5.27l.11-.16c3.11-2.77,7.72-3,11.08-.55h0c2.08,.91,4.31,1.43,6.58,1.53,8.01,0,9.21-3.12,9.41-5.46,.1-1.28-.1-2.57-.59-3.75h0c-.91-2.42-1.36-4.99-1.33-7.57v-.12c.35-1.34,.52-2.73,.5-4.12-.02-.91-.41-1.78-1.08-2.4-.66-.61-1.54-.93-2.44-.87-3.44,.18-8.27,2.22-10.84,3.42-1.38,.68-2.68,1.5-3.88,2.46-2.63,2.03-5.89,3.09-9.21,2.97-1.6,.12-3.74,.54-4.29,1.88-.63,1.53,.95,3.81,1.6,4.58,1.47,2.61,.87,5.9-1.42,7.83,0,0-2.04,1.95-1.89,3.76,.09,.78,.54,1.47,1.21,1.87v-.02Zm22.55-12.49c-3.23,0-5.75-1.53-5.75-3.46s2.52-3.45,5.75-3.45,5.75,1.53,5.75,3.45-2.52,3.48-5.75,3.48v-.02Zm0-5.75c-2.72,0-4.58,1.21-4.58,2.29s1.89,2.29,4.58,2.29,4.58-1.21,4.58-2.29-1.87-2.27-4.58-2.27v-.02Z" />
    <path class="pigTail"
      d="M259.62,160.95c-.56-1.43-.42-3.04,.38-4.36,1.55-2.5,5.39-3.91,11.41-4.17,2.8-.11,5.45-1.29,7.4-3.31,3.31-3.46,6.59-10.59,3.25-25.09-.12-.34-12.75-38.49,18.24-53.49,.29-.13,28.62-12.79,52.55,19.13,.1,.17,5.41,10.41,16.31,13.9,7.24,2.31,15.29,1.18,23.94-3.35,0,0,1.17-.83,2.77-2.17-2.62-1.94-4.23-4.96-4.38-8.22-.58-9.27,4.93-12.09,8.26-12.95,1.84-.47,3.78,.18,4.97,1.65,1.47,1.75,2.11,4.04,1.76,6.3-.7,4.99-5.4,9.98-8.91,13.09,2.94,1.5,6.5,1.27,10.59-.7,2.33-1.14,4.45-2.65,6.3-4.47l11.51-11.12c.14-.16,16.4-18.12,35.48-11.1l-.34,.94c-18.44-6.79-34.25,10.67-34.43,10.85l-11.5,11.16c-1.92,1.89-4.14,3.45-6.56,4.63-5.52,2.65-9.4,1.87-11.85,.5-1.7,1.44-2.99,2.35-3.15,2.46-8.95,4.69-17.27,5.85-24.77,3.45-11.31-3.61-16.8-14.21-16.85-14.31-23.39-31.17-50.98-18.88-51.27-18.75-30.19,14.61-17.84,51.94-17.71,52.31,3.45,14.96,0,22.43-3.49,26.06-2.13,2.2-5.03,3.49-8.08,3.61-7.04,.31-9.65,2.17-10.59,3.68-.64,1.03-.76,2.31-.32,3.44l-.91,.41Zm141.33-83.23c-.32,0-.64,.04-.95,.12-3.04,.79-8.06,3.38-7.52,11.92,.14,2.96,1.6,5.71,3.97,7.49l.17,.11c3.42-2.99,8.18-7.95,8.84-12.69,.31-1.98-.25-4-1.54-5.53-.73-.89-1.82-1.41-2.97-1.42Z" />
    <path class="cls-21"
      d="M250.16,268.33l-.66-.14c-38.65-8.21-67.81-40.1-72.54-79.33-.14-1.14-.26-2.29-.35-3.44v-.29l.21-.18c1.92-1.72,12.04-10.24,22.12-9.15,4.63,.49,8.6,2.93,11.77,7.26,.14,.18,3.56,4.81,9.28,18.53,0,.04,3.87,7.57,10.82,9.5,3.81,1.07,7.93,.25,12.16-2.43,2.51-1.63,4.7-3.72,6.44-6.16,4.02-5.47,8.07-8.94,12.4-10.6,3.32-1.29,7.02-1.14,10.22,.41,3.41,1.66,6,4.65,7.16,8.26,1.14,3.75,1.65,7.66,1.53,11.57-.04,.36-.69,7.63,10.13,9.82,.1,0,4.71,0,6.29,2.88,.99,1.78,.55,4.2-1.31,7.19l-.06,.08c-.21,.24-5.42,5.89-20.23,5.93,0,0-5.34,.59-7.63,3.91-1.11,1.71-1.39,3.82-.76,5.75,.07,.18,2.06,5.78-.68,10.05-1.66,2.6-4.71,4.11-9.03,4.47-.08,0-6.99,.56-7.24,5.48l-.03,.64Zm-72.38-82.72c.09,1.05,.2,2.08,.32,3.11,4.65,38.51,33.13,69.88,71.02,78.21,.85-5.34,8.15-5.89,8.23-5.9,3.94-.33,6.69-1.65,8.15-3.94,2.43-3.81,.57-9.05,.55-9.09-.66-2.67-.34-4.92,.94-6.76,2.62-3.74,8.27-4.36,8.51-4.39,13.73,0,18.97-5.06,19.41-5.51,1.59-2.58,2.02-4.58,1.25-5.97-1.26-2.29-5.34-2.29-5.39-2.29-12.02-2.41-11.18-10.97-11.17-11.08,.11-3.77-.39-7.53-1.49-11.14-1.08-3.32-3.46-6.05-6.61-7.57-2.92-1.41-6.29-1.55-9.31-.38-4.11,1.59-7.99,4.92-11.88,10.21-1.83,2.56-4.12,4.74-6.75,6.45-4.52,2.86-8.92,3.72-13.08,2.56-7.44-2.07-11.39-9.81-11.55-10.14-5.66-13.58-9.12-18.27-9.15-18.31-2.98-4.07-6.67-6.35-10.97-6.8-9.26-.96-18.7,6.7-21.01,8.71Z" />
    <path class="cls-21"
      d="M357.41,199.81c-2.31,.09-4.56-.71-6.29-2.24-3.05-2.8-3.49-7.51-3.49-10.07,.02-1.75-.48-3.46-1.43-4.93-.73-1.28-1.98-2.18-3.43-2.46-2.11-.31-4.07,1.11-4.41,1.37-5.51,7.67-9.67,7.63-10.31,7.54-1.35,.14-2.68-.36-3.62-1.34-2.7-2.84-2.07-9.26-1.98-10.05-.16-2.21-1.21-4.27-2.91-5.69-2.85-2.24-6.8-1.8-6.87-1.79-16.3,1.17-19.56-4.2-19.69-4.42-1.31-1.41-1.85-3.38-1.45-5.26,1.27-5.96,11.2-10.76,11.62-10.96,17.81-6.68,20.46-10.13,20.49-10.16l.14-.14c2.56-1.79,3.81-3.68,3.68-5.64-.24-4-5.87-7.42-8.28-8.71-1.83-.96-3.38-2.39-4.48-4.13-5.14-8.54,2.69-20.6,3.05-21.11l.31-.47,.47,.31c33.45,21.25,49.69,61.4,40.43,99.92l-.1,.41h-.42c-.37,.04-.69,.04-1.03,.04Zm-15.26-20.89c.26,0,.51,.02,.76,.06,1.77,.32,3.32,1.4,4.23,2.95,1.07,1.65,1.64,3.59,1.62,5.56,0,2.37,.43,6.73,3.13,9.23,1.66,1.44,3.84,2.14,6.03,1.93,8.89-37.72-6.94-76.96-39.52-97.95-1.39,2.29-6.93,12.39-2.71,19.4,.99,1.57,2.38,2.86,4.04,3.71,2.58,1.38,8.59,5.06,8.89,9.63,.14,2.36-1.24,4.58-4.1,6.61-.53,.64-4.03,4.14-20.91,10.47-.05,0-9.79,4.74-10.95,10.14-.32,1.58,.15,3.21,1.27,4.37,.09,.13,3.23,5.05,18.64,3.94,.14,0,4.42-.51,7.63,2.03,1.97,1.62,3.19,3.98,3.36,6.53v.16c0,.07-.76,6.63,1.67,9.19,.7,.75,1.73,1.12,2.75,.98h.14s3.9,.44,9.31-7.13l.1-.11c1.32-1.05,2.94-1.65,4.62-1.72v.02Z" />
    <path class="cls-21"
      d="M182.2,154.42c-1.4,0-2.23-.08-2.29-.08l-.67-.07,.18-.65c8.67-32.34,34.12-57.48,66.57-65.75l.57-.14,.13,.58c.52,2.72,0,5.54-1.45,7.9-2.04,5.19,3.05,8.31,3.23,8.44,1.68,1.34,2.52,2.78,2.56,4.32,.06,2.14-1.43,3.94-2.69,5.06-.84,.71-1.44,1.65-1.72,2.71-.84,3.56,2.76,5.06,2.91,5.13,3.13,.89,5.48,2.29,6.95,4.06h0c.81,.98,1.17,2.26,.98,3.52-.2,1.28-.94,2.41-2.02,3.11-6.96,4.58-24-1.31-24.71-1.56-10.92-4.36-18.79,9.92-18.86,10.08-9.29,12.11-24.05,13.34-29.66,13.34Zm-1.47-1.18c3.57,.16,20.21,.2,30.19-12.78,0-.08,8.39-15.26,20.22-10.54,.15,.05,17.2,5.94,23.68,1.68,.81-.51,1.37-1.34,1.53-2.29,.15-.94-.12-1.89-.72-2.62h0c-1.31-1.6-3.48-2.85-6.43-3.69-1.68-.67-4.52-2.85-3.66-6.48,.34-1.29,1.06-2.44,2.07-3.3,.88-.76,2.36-2.38,2.29-4.18,0-1.18-.72-2.33-2.07-3.4h0s-6.1-3.74-3.63-9.87l.06-.1c1.17-1.95,1.67-4.22,1.43-6.48-31.52,8.26-56.26,32.66-64.96,64.06h0Z" />
    <path class="cls-21"
      d="M307.8,248.45c-.13,0-.25,0-.38,0-1.43-.14-2.56-1.04-3.38-2.67-.23-.46-1.01-3,5.9-8.76,.08-.05,4.62-3.4,4.9-7.02,.09-1.38-.46-2.72-1.49-3.64-.26-.21-.53-.41-.82-.58-2.09-1.35-6.98-4.51-3.91-12.69,.06-.11,1.62-2.79,.69-5.4-.66-1.7-2.19-2.92-4-3.17-1.72-.28-4.75-1.19-5.74-4.07-.58-1.87-.11-3.91,1.22-5.34,2.04-2.29,7.78-6.96,16.78-.68l.13,.13c.08,.11,8.15,10.78,17.83,6.02,.1-.06,3.26-1.84,6.49-.86,2.02,.68,3.66,2.18,4.5,4.13l.05,.14c.05,.24,1.14,6.1-4.7,14.25h0s-1.15,1.86-1.11,5.73c.66,2.22,.32,4.62-.92,6.58-1.97,3.01-6.1,4.74-12.2,5.19-4.53,.35-8.62,2.81-11.06,6.64-.26,.25-4.81,6.04-8.78,6.05Zm1.1-56.06c-2.8,.05-5.45,1.31-7.25,3.46h0c-1.06,1.13-1.44,2.74-.99,4.22,.76,2.29,3.36,3.05,4.83,3.3,2.23,.32,4.1,1.83,4.9,3.93,1.11,3.13-.67,6.16-.76,6.29-2.69,7.22,1.34,9.82,3.51,11.21,.36,.22,.7,.48,1.01,.76,1.27,1.15,1.94,2.83,1.82,4.54-.33,4.15-5.13,7.69-5.34,7.83-6.23,5.2-5.57,7.35-5.56,7.36,.62,1.24,1.43,1.91,2.44,2.01,2.84,.29,6.8-3.94,8.08-5.59,4.7-7.04,11.66-7.12,11.96-7.12,5.71-.4,9.51-1.98,11.28-4.65,1.05-1.7,1.33-3.76,.76-5.68l-.04-.18c-.06-4.33,1.25-6.4,1.31-6.48,5.19-7.28,4.62-12.65,4.53-13.31-.71-1.63-2.07-2.88-3.75-3.46-2.76-.84-5.61,.76-5.64,.76-10.09,4.99-18.44-5.26-19.22-6.27-3.05-2.15-5.68-2.92-7.89-2.92Z" />
    <!-- <path class="rightArm" d="M183.39,34.04s-4.09,42.47-3.95,45.64h21.37s-7.6-45.62-9.33-49.05l-8.08,3.41Z" />
    <path class="cls-3"
      d="M253.31,123.65c-1.33,4.21-3.1,6.42-14.84,18.61-11.74,12.18-27.5,4.21-27.5,4.21l-51.14-30.79-34.78,45.86-19.72-13.73s34.09-59.73,42.51-65.77c8.42-6.04,21.58-2.37,21.58-2.37l55.89,26.11s2.37,1.73,5.18,1.51c.91-.35,1.38-.75,1.38-.75l13.51,11.38" />
    <line class="cls-8" x1="234.28" y1="42.23" x2="234.57" y2="36.44" />
    <path class="cls-8" d="M230.96,28.65c.54,.36,1.99,.48,2.23,.48" />
    <path class="cls-12" d="M181.55,101.8s15.62,12.4,19.22,12.65" />
    <path class="cls-12"
      d="M118.85,157.22s1.16-1.57,3.07-4.13c7.68-10.29,27.45-36.65,32.72-42.14,6.57-6.85,14.51-2.08,14.51-2.08,0,0,37.07,14.63,44.76,16.72,7.69,2.09,15.25,1.88,22.19,1.13s9.28-8.82,9.28-8.82l7.93,5.75" />
    <line class="cls-12" x1="107.72" y1="143.66" x2="121.93" y2="153.08" />
    <path class="cls-5"
      d="M173.49,124.38l.65-5.61s2.25-6.3,5.25,0l.83,9.66,1.63,.98s2.5-7.39,4.25-1.38c1.75,6.01,1.29,4.72,1.29,4.72l1.74,1.05s2.26-5.67,5.45-1.9c3.19,3.77,8.61,7.72,8.61,7.72,0,0,3.77,1.85,8.37,1.65" />
    <path class="cls-5" d="M213.1,147.34s8.21-3.54,9.81-5.14" />
    <path class="cls-5" d="M218.73,148.75s4.99-.87,7.12-3.97" />
    <path class="cls-5" d="M228.14,127.24s-4.85,2.4-9.41,2.76" />
    <path class="cls-3"
      d="M178.26,141.97c.09,5.25-3.65,63.38-3.65,63.38h-25.47c-3.83-4.13-4.73-69.1-4.73-69.1l4.73-6.24,29.62,12.17" />
    <path class="cls-5" d="M171.24,160.07s-1.71-5.15-3.42-2.86-4.98,16.24-4.13,32.33" />
    <line class="cls-12" x1="147.23" y1="200.07" x2="163.55" y2="200.07" />
    <path class="cls-5" d="M169.39,204.5s.14-6.55,.85-6.26" />
    <path class="cls-2"
      d="M106.74,151.67l-31.18-2.93s-10.39,.08-4.7,5.78c5.7,5.7,39.3,26.2,39.3,26.2l11.77-15.23-.95-3.13-14.24-10.68,1.45-1.89" />
    <line class="cls-11" x1="122.66" y1="159.86" x2="120.98" y2="162.35" />
    <path d="M152.96,208.25l-28.7,18.72s-4.56,5.39,6.02,4.98c10.58-.41,43.15-1.24,43.15-1.24v-22.46h-20.46Z" />
    <line class="cls-11" x1="152.89" y1="204.5" x2="152.96" y2="208.25" />
    <line class="cls-11" x1="171.79" y1="208.25" x2="171.79" y2="204.5" />
    <path class="cls-9" d="M244.8,17.76s1.75,2.94,2.69,3.25" />
    <path class="cls-9" d="M246.15,16.16s.64,1.65,1.4,2.21" />
    <path class="cls-4" d="M148.91,128.62l42.85,17.61s19.32,7.19,28.31,2.21" />
    <line class="cls-5" x1="260.21" y1="93.65" x2="269" y2="94.24" />
    <line class="cls-5" x1="273.03" y1="94.96" x2="285.91" y2="95.91" />
    <path class="neck"
      d="M245.45,22.47l-.26,6.24s-3,6.95-5.6,7.54c-2.66,.6-6.32,2.01-9.6-2.97-3.21-4.87-4.34-13.9-4.34-13.9l1.12-8.66,18.4,4.78,.28,6.97Z" />
    <path class="cls-13" d="M233.07,22.96s-.54,4.34,0,4.7c.54,.36,1.99,.48,2.23,.48" />
    <path class="head"
      d="M247.61,24.98c-.55-.5-2.75-2.17-3.78-4.41-1.03-2.24-3.98-3.95-3.98-3.95,0,0-4.74,.73-5.52,3.24l.5-3.74s-4.97,1.17-5.46,4l.25-4s-4.92,2.85-5.66,5.71l.89-5.21s-3,1.92-4.33,5.21l-.93-.05c-.15-1.62,.92-9.55,3.21-13.09,2.28-3.54,7.31-6.4,13.71-7.2,6.4-.8,13.37,8.8,11.88,12.34-1.49,3.54-1.14,7.2-1.03,9.94,.11,2.74,6.84,15.04,6.84,15.04l-12.21,9.04" />
    <path class="rightHand"
      d="M192.26,32.91s-4.69-7.45-5.65-7.97c-.96-.52-2.06-2.92-6.85,1.46-4.79,4.38-8.45,7.26-8.4,8.01,.01,.23,.19,.62,.45,1.06,.58,1.01,1.55,2.25,1.83,2.25,.39,0,1.53,0,1.53,0,0,0,1.87-1.76,2.39-2.37" />
    <path class="rightFinger1"
      d="M177.72,34.72c-1.45,3.83,0,11.01,0,11.01,0,0,1.84,1.83,3.61-6.16,0,0,1.43-5.46,2.56-5.64,0,0,1.04-1.7,1.18,.52s.05,2.92,.88,4.1c.83,1.18,1.79,.08,1.79,.08,0,0-.57-2.97,1.21-5.33" />
    <line class="cls-10" x1="175.6" y1="32.41" x2="171.81" y2="35.47" />
    <line class="cls-10" x1="176.46" y1="33.72" x2="172.75" y2="36.86" />
    <polyline class="cls-12" points="256.92 95.31 257.59 100.7 216.77 89.22" />
    <path class="shoulder"
      d="M254.67,72.31l-1.35,23.16,32.6,1.94V54.98s-3.61-16.92-17.62-17.2c-14.01-.28-13.86,.48-13.86,.48l-12.21,9.04-7.95-5.42s-17.52,5-22.06,8.83c-4.54,3.83-13.09,11-13.9,12.47l5.54,32.55,55.65,11.08" />
    <path class="clothLine" d="M267.35,44.63s13.89-1.55,16.01,3.61" />
    <path class="clothLine"
      d="M272.13,57.28s1.53-2.79,3.91-1.66c2.39,1.13-.86,9.69-3.91,12.21-3.05,2.52,5.57-2.12,5.44-.86-.13,1.26-2.45,9.02-4.84,10.62" />
    <path class="clothLine" d="M280.57,58.23s.13,4.2-.28,5.4" />
    <path class="clothLine" d="M281.25,69.78s-1.58,7.85-.96,9.54,3.23-2.94,2.21-.79c-1.02,2.15,.62,6.89-2.06,7.4" />
    <path class="clothLine" d="M230.71,42.95s-.22,3.6,.58,5.07" />
    <path class="clothLine"
      d="M260.6,37.72s1.23,4.78-.61,7.06c-1.84,2.27-11.18,8.91-13.03,9.58s-3.44-3.01-3.44-3.01l-3.44,2.46s-4.24-3.13-5.04-5.28" />
    <path class="clothLine" d="M232.37,42.44s-.04,2.85,.46,3.64" />
    <path class="clothLine" d="M257.59,37.72s-5.43,11.82-10.55,12.28" />
    <path class="leftArm"
      d="M280.63,97.45s-3.8,37.14-26.54,26.11l-26.64-20.58v-7.55s26.68,7.54,27.37,8.66,3.84-2.76,3.9-8.29" />
    <polygon class="cls-18" points="229.27 107.25 228.92 72.86 169.45 72.65 169.45 79.52 229.27 107.25" />
    <path class="cls-19"
      d="M138.08,46.33h17.91c1.44,0,2.6,1.07,2.6,2.39v7.04c0,1.32-1.16,2.39-2.6,2.39h-17.91c-1.44,0-2.6-1.07-2.6-2.39v-7.04c0-1.32,1.16-2.39,2.6-2.39Z" />
    <path class="cls-15"
      d="M152.2,52.23c0-.38,.34-.69,.75-.69h0c.42,0,.76,.32,.75,.7s-.35,.7-.76,.69-.76-.32-.75-.7h.01Z" />
    <path class="cls-15"
      d="M148.25,52.23c0-.38,.34-.69,.75-.69h0c.42,0,.76,.32,.75,.7s-.35,.7-.76,.69c-.42,0-.76-.32-.75-.7h.01Z" />
    <path class="cls-15"
      d="M144.31,52.23c0-.38,.34-.69,.75-.69h0c.42,0,.76,.32,.75,.7s-.35,.7-.76,.69c-.42,0-.76-.32-.75-.7h.01Z" />
    <path class="cls-15" -->
    d="M140.36,52.23c0-.38,.34-.69,.75-.69h0c.42,0,.76,.32,.75,.7s-.35,.7-.76,.69c-.42,0-.76-.32-.75-.7h.01Z" />
    <path class="branch"
      d="M25.59,168.29c2.4,.28,4.72,.96,6.83,2,3.98,2.03,7.15,5.07,9.11,8.72,2.04,3.92,3.18,8.15,3.37,12.45,.39,5.4,.47,10.89,1.09,16.3,0,.35,.68,.49,.75,.07,.15-1.17,.18-2.35,.1-3.53,0-1.28-.1-2.56-.15-3.85-.1-2.55-.21-5.11-.31-7.66-.19-4.68-.77-9.26-2.97-13.57-1.96-3.9-5.22-7.19-9.36-9.43-1.54-.81-3.19-1.44-4.92-1.86" />
    <polygon class="cls-21"
      points="58.93 203.19 58.26 211.16 56.2 235.48 34.14 235.48 32.08 211.16 31.41 203.19 58.93 203.19" />
    <polygon class="cls-23" points="59.11 203.73 58.44 211.71 32.26 211.71 31.58 203.73 59.11 203.73" />
    <rect class="cls-21" x="29.42" y="200.07" width="31.85" height="7.65" />
    <!-- <rect class="cls-19" x="140.06" y="6.93" width="20.1" height="13.11" /> -->
    <!-- <g class="cls-22">
      <path class="cls-15"
        d="M147.27,16.94c-.05,0-.11-.02-.14-.06l-3.02-3.02c-.08-.08-.09-.22,0-.31,0,0,0,0,0,0l3.02-3.05c.08-.09,.21-.09,.3,0,0,0,0,0,0,0,.08,.09,.08,.22,0,.31l-2.87,2.9,2.86,2.86c.08,.08,.08,.22,0,.31,0,0,0,0,0,0-.04,.04-.09,.06-.15,.07Z" />
    </g>
    <g class="cls-22">
      <path class="cls-15"
        d="M153.25,16.94c-.12,0-.21-.1-.21-.22,0-.06,.02-.12,.06-.16l2.86-2.9-2.86-2.86c-.08-.08-.09-.22,0-.31,.08-.09,.21-.09,.3,0h0l3.02,3.02s.06,.1,.06,.16c0,.06-.02,.12-.06,.16l-3.02,3.05s-.09,.07-.15,.07Z" />
    </g>
    <g class="cls-22">
      <path class="cls-15"
        d="M148.86,16.54s-.07,0-.1-.02c-.1-.06-.14-.19-.09-.29,0,0,0,0,0,0l2.73-5.46c.05-.11,.17-.16,.28-.11,.11,.05,.15,.18,.11,.29,0,0,0,.02-.01,.02l-2.73,5.46c-.04,.07-.11,.12-.19,.12Z" />
    </g> -->
    <!-- <rect class="cls-19" x="135.12" y="15.33" width="16.75" height="19.04" /> -->
    <!-- <rect class="cls-16" x="135.12" y="15.33" width="16.75" height="3.06" /> -->
    <!-- <rect class="cls-21" x="136.46" y="19.35" width="5.17" height="5.17" /> -->
    <circle class="cls-16" cx="147.03" cy="16.87" r=".34" />
    <circle class="cls-16" cx="148.76" cy="16.87" r=".34" />
    <circle class="cls-16" cx="150.48" cy="16.87" r=".34" />
    <path class="cls-15"
      d="M147.56,21.08h-4.79c-.05,0-.1-.04-.1-.1,0-.05,.04-.1,.1-.1h4.78c.05,0,.1,.04,.1,.1,0,.05-.04,.1-.1,.1h0Z" />
    <!-- <path class="cls-15"
      d="M148.95,22.22h-6.12c-.05,0-.1-.04-.1-.1,0-.05,.04-.1,.1-.1h6.12c.05,0,.1,.04,.1,.1s-.04,.1-.1,.1h0Z" /> -->
    <path class="cls-15"
      d="M150.48,23.37h-7.66c-.05,0-.09-.05-.09-.11,0-.05,.04-.08,.09-.09h7.66c.05,0,.09,.05,.09,.11,0,.05-.04,.08-.09,.09Z" />
    <path class="cls-15"
      d="M147.32,29.5h-7.46c-.05,0-.1-.03-.11-.09,0-.05,.03-.1,.09-.11,0,0,.01,0,.02,0h7.46c.05,0,.09,.05,.09,.11,0,.05-.04,.08-.09,.09Z" />
    <path class="cls-15"
      d="M149.71,30.65h-12.25c-.05,0-.1-.03-.11-.09,0-.05,.03-.1,.09-.11,0,0,.01,0,.02,0h12.25c.05,0,.1,.03,.11,.09,0,.05-.03,.1-.09,.11,0,0-.01,0-.02,0Z" />
    <path class="cls-15"
      d="M147.37,31.79h-7.56c-.05,0-.1-.03-.11-.09,0-.05,.03-.1,.09-.11,0,0,.01,0,.02,0h7.56c.05,0,.1,.03,.11,.09,0,.05-.03,.1-.09,.11,0,0-.01,0-.02,0h0Z" />
    <rect class="cls-16" x="139.81" y="26.05" width="6.99" height="1.44" />
    <!-- <path class="cls-19"
      d="M120.74,59.5h12.03c.97,0,1.75,.75,1.75,1.67v4.92c0,.92-.78,1.67-1.75,1.67h-12.03c-.97,0-1.75-.75-1.75-1.67v-4.92c0-.92,.78-1.67,1.75-1.67Z" /> -->
    <rect class="dot1" x="386.76" y="180.72" width="2.89" height="2.89" rx="1.44" ry="1.44" />
    <rect class="dot2" x="75.67" y="71.21" width="2.89" height="2.89" rx="1.44" ry="1.44" />
    <rect class="dot3" x="117.41" y="0" width="2.89" height="2.89" rx="1.44" ry="1.44" />
    <rect class="dot4" x="191.47" y="15.09" width="2.89" height="2.89" rx="1.44" ry="1.44" />
    <rect class="dot5" x="423.66" y="156.02" width="2.89" height="2.89" rx="1.44" ry="1.44" />
    <rect class="dot6" x="289.95" y="39.33" width="2.89" height="2.89" rx="1.44" ry="1.44" />
    <rect class="dot1" x="395.42" y="122.23" width="2.89" height="2.89" rx="1.44" ry="1.44" />
    <rect class="dot2" x="338.42" y="97.68" width="2.89" height="2.89" rx="1.44" ry="1.44" />
    <rect class="dot3" x="352.39" y="40.78" width="2.89" height="2.89" rx="1.44" ry="1.44" />
    <rect class="dot4" x="360.95" y="76.41" width="2.89" height="2.89" rx="1.44" ry="1.44" />
    <rect class="dot5" x="127.14" y="79.68" width="2.89" height="2.89" rx="1.44" ry="1.44" />
    <rect class="dot6" x="87.83" y="125.8" width="2.89" height="2.89" rx="1.44" ry="1.44" />
    <rect class="dot1" x="98.16" y="88.51" width="2.89" height="2.89" rx="1.44" ry="1.44" />
    <ellipse class="flowerCenter" cx="25.59" cy="167.01" rx="4.5" ry="4.18"
      transform="translate(-12 2.29) rotate(-4.14)" />
    <path class="flower"
      d="M25.58,179.08c-13.61,.99-25.07-3.69-25.56-10.42s10.18-13,23.79-13.99c13.61-.99,25.07,3.69,25.56,10.42,.49,6.73-10.21,13.01-23.79,13.99Zm-1.73-23.82c-13.28,.96-23.67,6.96-23.2,13.36s11.61,10.84,24.89,9.87,23.67-6.96,23.2-13.36-11.65-10.84-24.89-9.88h0Z" />
    <path class="flower"
      d="M26.35,189.82c-7.24,.52-13.87-9.34-14.79-21.99s4.23-23.37,11.46-23.89c7.24-.52,13.87,9.34,14.79,21.99,.92,12.65-4.25,23.37-11.46,23.89Zm-3.28-45.29c-6.9,.5-11.77,10.93-10.87,23.26s7.21,21.95,14.11,21.45c6.9-.5,11.77-10.93,10.87-23.26s-7.25-21.94-14.11-21.45Z" />
    <path class="flower"
      d="M15.4,184.57c-3.87,.28-6.99-.65-8.89-2.72-4.89-5.26-.45-16.34,9.9-24.7,4.99-4.03,10.6-6.84,15.79-7.92s9.47-.27,11.86,2.3,2.66,6.58,.75,11.27c-1.91,4.69-5.67,9.4-10.66,13.43-4.99,4.03-10.6,6.84-15.78,7.92-.98,.21-1.97,.35-2.97,.42Zm19.81-35.18c-.97,.07-1.93,.21-2.88,.41-5.09,1.06-10.6,3.82-15.51,7.79-10.09,8.15-14.5,18.86-9.83,23.87,2.23,2.4,6.23,3.15,11.25,2.11s10.59-3.82,15.5-7.79,8.63-8.65,10.48-13.2,1.59-8.27-.64-10.67c-1.79-1.92-4.7-2.79-8.37-2.52Z" />
    <path class="flower"
      d="M36.67,184.91c-5.94,.43-13.95-2.46-20.98-8.11-4.95-3.97-8.69-8.71-10.52-13.32s-1.55-8.68,.87-11.28c2.42-2.6,6.64-3.46,11.88-2.42s10.76,3.77,15.71,7.75h0c4.95,3.97,8.69,8.71,10.52,13.32,1.83,4.61,1.56,8.68-.86,11.27-1.54,1.69-3.85,2.59-6.61,2.79Zm-23.97-34.93c-2.66,.19-4.76,1.07-6.22,2.61-2.26,2.43-2.53,6.22-.75,10.68s5.47,9.17,10.35,13.08c10.06,8.04,22.03,10.44,26.77,5.39,2.26-2.43,2.53-6.22,.75-10.68-1.78-4.46-5.47-9.17-10.35-13.08h0c-4.87-3.91-10.35-6.62-15.42-7.62-1.67-.35-3.39-.48-5.1-.37h-.02Z" />
    <!-- <polygon class="cls-17" points="97.18 205.36 102.45 192.4 107.72 205.77 102.45 210.86 97.18 205.36" /> -->
    <!-- <polygon class="cls-23" points="97.18 205.36 102.45 204.21 107.72 205.77 102.45 210.86 97.18 205.36" /> -->
    <!-- <polygon class="cls-23" points="102.45 192.4 102.45 210.86 97.18 205.36 102.45 192.4" /> -->
    <!-- <polygon class="cls-7"
      points="88.49 219.36 85.91 220.9 85.81 220.96 85.71 220.91 82.81 219.36 85.56 213.37 85.65 213.19 85.77 213.44 88.49 219.36" /> -->
    <!-- <path class="cls-14" -->
    <!-- d="M85.62,217.9l-2.68,1.4s-.05,.06-.03,.1c0,.01,.02,.02,.03,.03l2.84,1.52s.05,.01,.07,0l2.52-1.51s.05-.06,.03-.1c0-.01-.02-.02-.03-.03l-2.69-1.4s-.05-.02-.07,0Z" /> -->
    <!-- <polygon class="cls-6"
      points="85.91 220.96 85.71 220.96 85.71 220.91 85.56 213.37 85.65 213.19 85.77 213.44 85.91 220.9 85.91 220.96" /> -->
    <!-- <polygon class="cls-7"
      points="88.49 220.31 85.76 225.29 85.65 225.48 85.56 225.31 82.81 220.31 85.63 221.82 85.73 221.88 85.83 221.82 88.49 220.31" /> -->
    <!-- <polygon class="cls-6"
      points="85.83 221.82 85.76 225.29 85.65 225.48 85.56 225.31 85.63 221.82 85.73 221.88 85.83 221.82" /> -->

    <!--  -->
    <!--  -->
    <!--  -->

  </g>
</svg>